<svg xmlns="http://www.w3.org/2000/svg" aria-hidden="true" style="position:absolute;width:0;height:0;overflow:hidden"><defs>

<symbol id="icon-favicon" viewBox="0 0 32 32">
<path fill="#3350e9" d="M16 2.909C23.2 2.909 29.091 8.8 29.091 16c0 7.2-5.891 13.091-13.091 13.091C8.8 29.091 2.909 23.2 2.909 16 2.909 8.8 8.8 2.909 16 2.909z" style="fill:var(--color1, #3350e9)"/>
<path fill="#3350e9" d="M16 32C7.2 32 0 24.8 0 16S7.2 0 16 0s16 7.2 16 16-7.2 16-16 16zm0-29.091C8.8 2.909 2.909 8.8 2.909 16S8.8 29.091 16 29.091c7.2 0 13.091-5.891 13.091-13.091S23.2 2.909 16 2.909z" opacity=".2" style="fill:var(--color1, #3350e9)"/>
<path fill="#fbfbfb" d="m17.964 17.6 1.236-4.509h1.964l-2.255 7.273h-1.818l-1.309-4.436-1.309 4.436h-1.818l-2.327-7.273h2.036l1.236 4.436 1.309-4.436h1.745l1.309 4.509z" style="fill:var(--color2, #fbfbfb)"/></symbol>

</defs></svg>